HIERARCHY
ROOT Hips
{
	OFFSET -3.958830 18.904000 13.208200
	CHANNELS 6 Xposition Yposition Zposition Zrotation Yrotation Xrotation 
	JOINT LHipJoint
	{
		OFFSET 0.000000 0.000000 0.000000
		CHANNELS 3 Zrotation Yrotation Xrotation
		JOINT LeftUpLeg
		{
			OFFSET 1.800000 -1.400000 0.085000
			CHANNELS 3 Zrotation Yrotation Xrotation
			JOINT LeftLeg
			{
				OFFSET 2.215000 -6.000000 0.000000
				CHANNELS 3 Zrotation Yrotation Xrotation
				JOINT LeftFoot
				{
					OFFSET 2.500000 -6.900000 0.000000
					CHANNELS 3 Zrotation Yrotation Xrotation
					JOINT LeftToeBase
					{
						OFFSET 0.200000 -0.500000 1.950000
						CHANNELS 3 Zrotation Yrotation Xrotation
						End Site
						{
							OFFSET 0.000000 0.000000 0.000000
						}
					}
				}
			}
		}
	}
	JOINT RHipJoint
	{
		OFFSET 0.000000 0.000000 0.000000
		CHANNELS 3 Zrotation Yrotation Xrotation
		JOINT RightUpLeg
		{
			OFFSET -1.800000 -1.400000 0.085000
			CHANNELS 3 Zrotation Yrotation Xrotation
			JOINT RightLeg
			{
				OFFSET -2.215000 -6.000000 0.000000
				CHANNELS 3 Zrotation Yrotation Xrotation
				JOINT RightFoot
				{
					OFFSET -2.500000 -6.900000 0.000000
					CHANNELS 3 Zrotation Yrotation Xrotation
					JOINT RightToeBase
					{
						OFFSET -0.200000 -0.500000 1.950000
						CHANNELS 3 Zrotation Yrotation Xrotation
						End Site
						{
							OFFSET 0.000000 0.000000 0.000000
						}
					}
				}
			}
		}
	}
	JOINT LowerBack
	{
		OFFSET 0.000000 0.000000 0.000000
		CHANNELS 3 Zrotation Yrotation Xrotation
		JOINT Spine
		{
			OFFSET -0.087000 1.940000 -0.288900
			CHANNELS 3 Zrotation Yrotation Xrotation
			JOINT Spine1
			{
				OFFSET 0.000000 1.950000 0.060000
				CHANNELS 3 Zrotation Yrotation Xrotation
				JOINT Neck
				{
					OFFSET 0.000000 0.000000 0.000000
					CHANNELS 3 Zrotation Yrotation Xrotation
					JOINT Neck1
					{
						OFFSET 0.000000 1.600000 0.340000
						CHANNELS 3 Zrotation Yrotation Xrotation
						JOINT Head
						{
							OFFSET 0.000000 1.667000 -0.240000
							CHANNELS 3 Zrotation Yrotation Xrotation
							End Site
							{
								OFFSET 0.000000 0.000000 0.000000
							}
						}
					}
				}
				JOINT LeftShoulder
				{
					OFFSET 0.000000 0.000000 0.000000
					CHANNELS 3 Zrotation Yrotation Xrotation
					JOINT LeftArm
					{
						OFFSET 2.700000 1.550000 -0.730000
						CHANNELS 3 Zrotation Yrotation Xrotation
						JOINT LeftForeArm
						{
							OFFSET 5.450000 0.000000 0.000000
							CHANNELS 3 Zrotation Yrotation Xrotation
							JOINT LeftHand
							{
								OFFSET 3.450000 0.000000 0.000000
								CHANNELS 3 Zrotation Yrotation Xrotation
								JOINT LeftHandIndex1
								{
									OFFSET 0.750000 0.000000 0.000000
									CHANNELS 3 Zrotation Yrotation Xrotation
									End Site
									{
										OFFSET 0.000000 0.000000 0.000000
									}
								}
							}
						}
					}
				}
				JOINT RightShoulder
				{
					OFFSET 0.000000 0.000000 0.000000
					CHANNELS 3 Zrotation Yrotation Xrotation
					JOINT RightArm
					{
						OFFSET -2.700000 1.550000 -0.730000
						CHANNELS 3 Zrotation Yrotation Xrotation
						JOINT RightForeArm
						{
							OFFSET -5.450000 0.000000 0.000000
							CHANNELS 3 Zrotation Yrotation Xrotation
							JOINT RightHand
							{
								OFFSET -3.450000 0.000000 0.000000
								CHANNELS 3 Zrotation Yrotation Xrotation
								JOINT RightHandIndex1
								{
									OFFSET -0.750000 0.000000 0.000000
									CHANNELS 3 Zrotation Yrotation Xrotation
									End Site
									{
										OFFSET 0.000000 0.000000 0.000000
									}
								}
							}
						}
					}
				}
			}
		}
	}
}
MOTION
Frames: 7
Frame Time: 0.016667
1.692050 17.217100 -0.807810 -4.531888 34.407673 -3.565910 -14.977478 11.559382 2.849003 -1.009408 1.126074 2.591097 -4.794334 3.838968 -2.191920 0.113518 4.167927 3.525214 0.107820 -0.101890 -0.093100 18.639964 -10.599026 3.944605 -9.609721 6.628044 -26.721682 31.529089 -14.017178 25.886306 -0.579732 -7.124085 1.906334 0.047240 0.668390 0.207660 -5.421408 1.805543 -8.242566 23.921599 -3.896362 11.767016 -12.579417 -1.688418 12.105661 4.574882 -0.253117 -13.020673 0.950783 -5.135303 24.373526 -2.098590 -8.021500 6.151260 1.832987 -6.859714 2.526398 -22.421255 -7.519155 -1.869074 26.819731 -10.896077 -1.932729 -4.316946 3.346248 -0.228710 0.455200 -0.484050 0.271840 -11.798751 11.442237 13.259038 28.112822 14.154737 -0.628368 -109.096121 66.751882 -95.834168 2.305714 -0.072055 -0.122540 0.080650 0.023410 0.146610 
1.674310 17.242320 -0.830570 -4.813532 33.621689 -4.426674 -14.978448 11.561463 2.830246 -0.719791 1.207496 3.184528 -4.601406 3.872092 -2.258296 0.143376 4.193139 3.502601 0.115940 -0.094250 -0.068140 18.645160 -10.479335 4.042074 -10.645039 6.935919 -26.620739 33.759763 -14.979628 26.515492 -0.705577 -7.468082 1.788797 0.031690 0.626160 0.204380 -5.390366 1.655561 -8.331089 24.412985 -4.342921 13.303977 -13.029849 -1.655338 12.201980 4.638972 -0.482096 -13.263737 0.499562 -5.011293 24.935992 -1.766450 -8.014270 5.163130 1.438124 -7.236919 2.915297 -21.459741 -6.422559 -2.087168 26.798379 -10.806143 -1.898540 -4.273947 3.322135 -0.191570 0.416470 -0.442510 0.257860 -11.540341 11.991787 13.362150 27.395821 13.174464 -1.689396 -109.223340 66.297364 -95.690556 2.311099 -0.128974 -0.108240 0.079410 0.016750 0.137340 
1.634730 17.303660 -0.889110 -5.431654 31.794280 -6.848171 -14.991425 11.557824 2.788912 0.044206 1.482618 5.019972 -4.254618 4.004132 -2.403604 0.218072 4.308437 3.434178 0.148470 -0.060900 -0.023650 18.652767 -10.174520 4.272178 -13.164816 7.708563 -26.106313 39.455699 -17.385379 27.799250 -1.027334 -8.298675 1.515790 0.007540 0.535080 0.203060 -5.285075 1.278632 -8.524431 25.412623 -5.643477 17.472895 -14.017824 -1.681445 12.809402 4.820766 -1.172263 -14.034812 -0.770650 -4.444596 26.003945 -0.745140 -7.960570 2.552850 1.062181 -8.336432 4.048322 -20.035006 -3.419708 -2.623615 26.879752 -10.405980 -1.815446 -4.163014 3.298189 -0.096160 0.324900 -0.345660 0.245510 -11.469944 13.716130 13.722574 26.104043 10.925250 -4.575259 -109.328246 64.946696 -95.225934 2.309577 -0.305944 -0.077860 0.075190 -0.003660 0.121620 
1.604340 17.343040 -0.943170 -7.020000 29.811233 -8.421214 -14.984442 11.522812 2.629957 1.551575 1.413659 5.347636 -4.009323 4.087736 -2.018956 0.284617 4.305755 3.433766 0.179910 0.004980 -0.012490 18.691200 -9.812574 4.630339 -15.578029 8.744220 -26.912667 47.516768 -20.328367 28.219963 -1.359939 -9.178630 1.263967 0.016760 0.494860 0.186820 -5.217943 0.956710 -8.660429 27.537429 -7.094325 20.276429 -15.109319 -1.896720 12.256424 4.983711 -2.045679 -14.353676 -2.187067 -3.647581 25.633654 -0.159290 -7.617390 1.454330 1.342629 -7.801152 4.475907 -19.565099 -1.013472 -2.757736 25.715363 -10.329863 -1.478088 -4.099632 3.301084 -0.090860 0.284370 -0.300170 0.265810 -12.165040 14.055058 13.714340 25.367338 9.285529 -6.194915 -108.656459 63.935210 -93.134912 2.287370 -0.408877 -0.046460 0.071870 -0.049670 0.142110 
1.592830 17.345410 -0.975770 -9.461979 27.840312 -7.846586 -14.955889 11.514117 2.375965 3.690974 0.843675 2.895955 -4.298878 4.087006 -1.034690 0.262364 4.173249 3.497333 0.178080 0.001980 -0.012200 18.748466 -9.421908 5.073639 -17.975849 9.377199 -29.792625 57.643277 -23.203172 26.649822 -1.623649 -9.818096 1.110366 0.003680 0.511640 0.194930 -5.187382 0.584826 -8.743610 30.427638 -7.989012 20.026344 -15.952014 -2.067302 9.773573 5.077476 -2.473777 -13.910189 -2.990152 -3.057610 25.175448 -0.591430 -6.887240 2.476000 0.549659 -5.844353 4.257939 -17.518222 1.353672 -2.362179 23.276039 -11.493748 -1.086458 -4.092990 3.290464 -0.113960 0.303840 -0.305610 0.285870 -11.876398 12.222688 12.850612 23.577561 8.597181 -4.856486 -108.921945 64.927496 -92.845410 2.275954 -0.313216 -0.036870 0.060640 -0.071160 0.154010 
1.576320 17.345240 -0.991860 -11.625029 25.306068 -6.573515 -14.930315 11.539871 2.184106 5.887333 0.304846 -0.019530 -5.062654 4.172838 -0.053207 0.225519 4.071539 3.536694 0.132840 -0.038560 -0.043920 18.791639 -9.083473 5.428999 -19.943015 9.655079 -32.924764 66.875564 -25.716411 24.926346 -1.795868 -10.258727 1.020575 -0.020170 0.540300 0.191150 -5.120017 0.170812 -8.800040 32.586470 -8.286236 19.251505 -16.001422 -1.958099 7.111800 5.184669 -2.820272 -13.378605 -3.688162 -2.235679 24.974778 -1.539920 -5.571810 4.388170 -0.620436 -3.664842 3.762467 -15.711738 3.460297 -2.009149 21.438464 -11.926574 -0.686597 -4.126069 3.280384 -0.149340 0.342720 -0.336420 0.283960 -11.137145 10.137051 12.048981 21.399243 7.721266 -3.031330 -109.683556 66.521468 -94.003933 2.295042 -0.169882 -0.046980 0.045180 -0.062350 0.157870 
1.555970 17.344200 -0.986710 -13.193220 22.579106 -4.543426 -14.875792 11.446892 2.048499 7.918472 -0.161355 -2.810595 -6.406364 4.326053 0.538854 0.175283 4.052225 3.548796 0.108030 -0.097110 -0.042580 18.877882 -8.815801 5.687537 -22.017856 9.536582 -36.156795 74.636765 -27.809905 23.282726 -1.937950 -10.532836 0.985234 -0.058050 0.560290 0.196920 -5.163157 -0.036933 -8.829814 33.997128 -7.869840 17.148507 -15.669416 -1.549087 5.766523 4.906360 -2.799719 -12.857742 -4.001291 -1.804686 25.663632 -1.778120 -4.734110 5.576690 -2.275223 -2.722264 3.998180 -12.413384 6.353445 -1.489142 18.006793 -11.822096 -0.350617 -4.106937 3.240383 -0.117660 0.356110 -0.340720 0.290400 -8.875378 8.171462 10.864436 17.897063 6.302643 -1.385618 -109.691149 68.646734 -94.375562 2.288139 0.232267 -0.071060 0.048960 -0.057090 0.140660 
